<?xml version="1.0" encoding="utf-8"?>
<!-- Generator: Adobe Illustrator 25.0.0, SVG Export Plug-In . SVG Version: 6.00 Build 0)  -->
<svg version="1.1" id="Layer_1" xmlns="http://www.w3.org/2000/svg" xmlns:xlink="http://www.w3.org/1999/xlink" x="0px" y="0px"
	 viewBox="0 0 122.85 49.08" style="enable-background:new 0 0 122.85 49.08;" xml:space="preserve">
<style type="text/css">
	.st0{fill:#3F5CAA;}
</style>
<g>
	<g>
		<path class="st0" d="M14.76,27.45l-1.66,0.14l-0.02-0.84c-0.27,0.3-0.61,0.54-1,0.72c-0.48,0.23-0.99,0.35-1.52,0.35
			c-1.2,0-2.16-0.52-2.87-1.56c-0.66-0.94-1-2.08-1-3.42c0-1.38,0.32-2.54,0.96-3.48c0.7-1.04,1.67-1.56,2.91-1.56
			c0.57,0,1.09,0.12,1.54,0.35c0.34,0.17,0.67,0.42,1,0.76v-3.81c0-0.35-0.11-0.59-0.33-0.7c-0.22-0.13-0.64-0.2-1.25-0.2l-0.1-0.25
			l2.87-1v12.71c0,0.46,0.1,0.79,0.31,1c0.21,0.21,0.55,0.31,1.04,0.31v0.41L14.76,27.45z M13.1,19.66l-0.21-0.2
			c-0.17-0.14-0.34-0.27-0.51-0.39c-0.25-0.18-0.48-0.32-0.68-0.41c-0.27-0.12-0.51-0.18-0.72-0.18c-0.95,0-1.7,0.45-2.25,1.35
			C8.24,20.65,8,21.66,8,22.84c0,1.19,0.24,2.18,0.72,2.99c0.55,0.89,1.3,1.33,2.25,1.33c0.51,0,0.94-0.12,1.31-0.35
			c0.21-0.14,0.44-0.37,0.7-0.68l0.12-0.1V19.66z"/>
		<path class="st0" d="M23.84,26.28c-0.78,1.03-1.84,1.54-3.16,1.54s-2.38-0.51-3.16-1.54c-0.69-0.92-1.04-2.07-1.04-3.44
			c0-1.38,0.34-2.55,1.04-3.5c0.78-1.03,1.84-1.54,3.16-1.54c1.31,0,2.37,0.51,3.16,1.54c0.73,0.95,1.09,2.12,1.09,3.5
			C24.93,24.2,24.57,25.34,23.84,26.28z M22.84,19.68c-0.55-0.92-1.27-1.39-2.17-1.39c-0.91,0-1.63,0.46-2.17,1.39
			c-0.48,0.85-0.72,1.89-0.72,3.14s0.24,2.3,0.72,3.14c0.53,0.92,1.26,1.39,2.17,1.39c0.9,0,1.62-0.46,2.17-1.39
			c0.49-0.85,0.74-1.89,0.74-3.14S23.33,20.52,22.84,19.68z"/>
		<path class="st0" d="M39.18,18.66c-0.22,0.13-0.38,0.36-0.49,0.68l-2.97,8.48h-0.31l-2.42-6.91l-2.34,6.91h-0.33l-3.2-8.73
			c-0.1-0.26-0.25-0.44-0.43-0.53c-0.18-0.06-0.5-0.1-0.96-0.1v-0.51h3.89v0.51c-0.51,0-0.86,0.05-1.05,0.16
			c-0.2,0.1-0.25,0.27-0.16,0.49l2.48,6.5l1.84-5.41l-0.41-1.13c-0.12-0.26-0.27-0.43-0.45-0.51c-0.18-0.06-0.5-0.1-0.96-0.1v-0.51
			h3.93v0.51c-0.57,0-0.95,0.05-1.13,0.14c-0.18,0.09-0.23,0.25-0.14,0.49l2.4,6.52l2.25-6.33c0.09-0.26,0.03-0.46-0.18-0.61
			c-0.22-0.14-0.6-0.21-1.13-0.21v-0.51h3.38v0.51C39.78,18.47,39.42,18.53,39.18,18.66z"/>
		<path class="st0" d="M46.13,27.49v-0.51c0.49,0,0.84-0.08,1.04-0.25c0.21-0.17,0.31-0.48,0.31-0.92V20.6c0-0.6-0.1-1.06-0.31-1.39
			c-0.23-0.35-0.59-0.53-1.05-0.53s-0.97,0.14-1.5,0.43c-0.44,0.23-0.94,0.59-1.48,1.07v5.62c0,0.43,0.1,0.74,0.31,0.92
			c0.21,0.17,0.56,0.25,1.05,0.25v0.51h-3.87v-0.51c0.49,0,0.83-0.08,1.02-0.25c0.2-0.17,0.29-0.48,0.29-0.92v-5.82
			c0-0.43-0.08-0.72-0.25-0.86c-0.17-0.16-0.5-0.23-1-0.23l-0.06-0.31l2.5-0.78v1.78l0.35-0.31c0.59-0.47,1.05-0.8,1.39-1
			c0.56-0.31,1.09-0.47,1.6-0.47c0.66,0,1.2,0.25,1.6,0.76c0.4,0.51,0.61,1.21,0.61,2.11v5.14c0,0.43,0.1,0.74,0.31,0.92
			c0.2,0.17,0.54,0.25,1.04,0.25v0.51H46.13z"/>
		<path d="M55.32,22.22h-4.6L50.86,21h4.6L55.32,22.22z"/>
		<path d="M56.4,27.49v-0.51c0.48,0,0.83-0.1,1.04-0.29c0.2-0.18,0.29-0.48,0.29-0.9v-10.7c0-0.33-0.1-0.56-0.29-0.7
			c-0.2-0.16-0.54-0.23-1.04-0.23l-0.08-0.29l2.6-0.9v12.83c0,0.4,0.1,0.7,0.31,0.9c0.23,0.2,0.6,0.29,1.09,0.29v0.51H56.4z"/>
		<path d="M68.82,26.28c-0.78,1.03-1.84,1.54-3.16,1.54s-2.38-0.51-3.16-1.54c-0.69-0.92-1.04-2.07-1.04-3.44
			c0-1.38,0.34-2.55,1.04-3.5c0.78-1.03,1.84-1.54,3.16-1.54c1.32,0,2.37,0.51,3.16,1.54c0.73,0.95,1.09,2.12,1.09,3.5
			C69.91,24.2,69.55,25.34,68.82,26.28z M67.82,19.68c-0.55-0.92-1.27-1.39-2.17-1.39c-0.91,0-1.63,0.46-2.17,1.39
			c-0.48,0.85-0.72,1.89-0.72,3.14s0.24,2.3,0.72,3.14c0.53,0.92,1.26,1.39,2.17,1.39c0.9,0,1.62-0.46,2.17-1.39
			c0.5-0.85,0.74-1.89,0.74-3.14S68.32,20.52,67.82,19.68z"/>
		<path d="M79.03,27.53c-0.27,0.2-0.59,0.29-0.94,0.29c-0.42,0-0.71-0.14-0.88-0.43c-0.13-0.21-0.2-0.51-0.2-0.92
			c-0.47,0.43-0.93,0.75-1.39,0.96c-0.55,0.26-1.14,0.39-1.78,0.39c-0.81,0-1.44-0.23-1.89-0.68c-0.43-0.43-0.64-0.98-0.64-1.66
			c0-0.89,0.5-1.65,1.48-2.3c0.99-0.65,2.4-1.14,4.22-1.46v-1.43c0-0.61-0.16-1.09-0.47-1.45c-0.31-0.36-0.75-0.55-1.33-0.55
			c-0.5,0-0.89,0.11-1.19,0.33c-0.31,0.23-0.55,0.61-0.72,1.13c-0.12,0.26-0.23,0.45-0.33,0.57c-0.16,0.17-0.34,0.25-0.57,0.25
			c-0.26,0-0.46-0.08-0.59-0.23c-0.13-0.14-0.2-0.35-0.2-0.62c0-0.51,0.35-0.96,1.05-1.35c0.73-0.38,1.61-0.57,2.64-0.57
			c0.89,0,1.58,0.23,2.09,0.68c0.53,0.47,0.8,1.13,0.8,1.99v5.55c0,0.34,0.03,0.59,0.08,0.76c0.05,0.2,0.16,0.29,0.31,0.29
			c0.13,0,0.26-0.03,0.39-0.08c0.17-0.07,0.34-0.18,0.53-0.33l0.18,0.2C79.43,27.18,79.21,27.4,79.03,27.53z M77.02,22.27
			c-0.04,0-0.27,0.08-0.7,0.23c-0.55,0.21-1.05,0.44-1.5,0.68c-0.64,0.33-1.14,0.66-1.5,1c-0.46,0.43-0.68,0.85-0.68,1.27
			c0,0.44,0.15,0.81,0.45,1.11c0.31,0.3,0.7,0.45,1.15,0.45c0.57,0,1.07-0.09,1.5-0.27c0.42-0.17,0.85-0.46,1.29-0.86V22.27z"/>
		<path d="M88.38,27.45l-1.66,0.14l-0.02-0.84c-0.27,0.3-0.61,0.54-1,0.72c-0.48,0.23-0.99,0.35-1.52,0.35
			c-1.2,0-2.16-0.52-2.87-1.56c-0.66-0.94-1-2.08-1-3.42c0-1.38,0.32-2.54,0.96-3.48c0.7-1.04,1.67-1.56,2.91-1.56
			c0.57,0,1.09,0.12,1.54,0.35c0.34,0.17,0.67,0.42,1,0.76v-3.81c0-0.35-0.11-0.59-0.33-0.7c-0.22-0.13-0.64-0.2-1.25-0.2l-0.1-0.25
			l2.87-1v12.71c0,0.46,0.1,0.79,0.31,1c0.21,0.21,0.55,0.31,1.04,0.31v0.41L88.38,27.45z M86.72,19.66l-0.21-0.2
			c-0.17-0.14-0.34-0.27-0.51-0.39c-0.25-0.18-0.48-0.32-0.68-0.41c-0.27-0.12-0.51-0.18-0.72-0.18c-0.95,0-1.7,0.45-2.25,1.35
			c-0.48,0.82-0.72,1.82-0.72,3.01c0,1.19,0.24,2.18,0.72,2.99c0.55,0.89,1.3,1.33,2.25,1.33c0.51,0,0.94-0.12,1.31-0.35
			c0.21-0.14,0.44-0.37,0.7-0.68l0.12-0.1V19.66z"/>
		<path d="M89.88,27.49v-0.51c0.48,0,0.81-0.06,1-0.18c0.22-0.14,0.33-0.4,0.33-0.78v-6.13c0-0.3-0.08-0.51-0.25-0.64
			c-0.21-0.17-0.57-0.25-1.09-0.23l-0.06-0.29l2.6-0.92v8.22c0,0.39,0.09,0.65,0.27,0.78c0.17,0.12,0.52,0.18,1.05,0.18v0.51H89.88z
			 M92.61,14.46c-0.21,0.21-0.48,0.31-0.8,0.31c-0.34,0-0.6-0.1-0.78-0.31c-0.17-0.18-0.25-0.41-0.25-0.68s0.08-0.5,0.25-0.68
			c0.18-0.21,0.44-0.31,0.78-0.31c0.33,0,0.59,0.1,0.8,0.31c0.18,0.18,0.27,0.41,0.27,0.68C92.89,14.04,92.8,14.27,92.61,14.46z"/>
		<path d="M99.93,27.49v-0.51c0.5,0,0.84-0.08,1.04-0.25c0.21-0.17,0.31-0.48,0.31-0.92V20.6c0-0.6-0.1-1.06-0.31-1.39
			c-0.23-0.35-0.59-0.53-1.05-0.53s-0.97,0.14-1.5,0.43c-0.44,0.23-0.94,0.59-1.48,1.07v5.62c0,0.43,0.1,0.74,0.31,0.92
			c0.21,0.17,0.56,0.25,1.05,0.25v0.51h-3.87v-0.51c0.5,0,0.83-0.08,1.02-0.25c0.2-0.17,0.29-0.48,0.29-0.92v-5.82
			c0-0.43-0.08-0.72-0.25-0.86c-0.17-0.16-0.5-0.23-1-0.23l-0.06-0.31l2.5-0.78v1.78l0.35-0.31c0.59-0.47,1.05-0.8,1.39-1
			c0.56-0.31,1.09-0.47,1.6-0.47c0.66,0,1.2,0.25,1.6,0.76s0.61,1.21,0.61,2.11v5.14c0,0.43,0.1,0.74,0.31,0.92
			c0.2,0.17,0.54,0.25,1.04,0.25v0.51H99.93z"/>
		<path d="M113.66,18.9c-0.12,0.16-0.27,0.23-0.47,0.23c-0.12,0-0.23-0.03-0.33-0.08c-0.07-0.03-0.16-0.07-0.27-0.14
			c-0.17-0.1-0.31-0.16-0.41-0.18c-0.17-0.01-0.35,0.07-0.55,0.23c0.21,0.29,0.37,0.6,0.49,0.94c0.14,0.36,0.21,0.72,0.21,1.07
			c0,0.96-0.36,1.74-1.07,2.32c-0.66,0.56-1.48,0.84-2.44,0.84h-0.08c-0.21,0-0.38-0.01-0.51-0.04c-0.23-0.01-0.47-0.06-0.7-0.14
			c-0.3,0.05-0.54,0.14-0.72,0.25c-0.2,0.12-0.29,0.23-0.29,0.35c0,0.14,0.04,0.27,0.12,0.37c0.13,0.13,0.36,0.23,0.68,0.31
			c0.38,0.09,0.77,0.18,1.19,0.25c0.25,0.04,0.63,0.1,1.15,0.2l1.05,0.2c0.77,0.13,1.36,0.36,1.78,0.68
			c0.5,0.36,0.74,0.85,0.74,1.46c0,0.79-0.46,1.38-1.37,1.76c-0.75,0.33-1.8,0.49-3.14,0.49c-1.45,0-2.53-0.18-3.26-0.55
			c-0.69-0.36-1.04-0.88-1.04-1.54c0-0.43,0.33-0.85,1-1.25c0.56-0.34,1.19-0.58,1.89-0.72c-0.74-0.14-1.27-0.32-1.58-0.53
			c-0.29-0.18-0.43-0.42-0.43-0.7c0-0.27,0.21-0.53,0.62-0.78c0.29-0.16,0.66-0.31,1.11-0.45c-0.56-0.26-1-0.63-1.31-1.11
			c-0.31-0.49-0.47-1.05-0.47-1.68c0-0.99,0.35-1.78,1.05-2.36c0.66-0.55,1.5-0.82,2.5-0.82c0.52,0,1.02,0.08,1.48,0.25
			c0.39,0.13,0.71,0.31,0.96,0.55c0.26-0.29,0.54-0.51,0.84-0.66s0.59-0.23,0.86-0.23c0.22,0,0.42,0.06,0.59,0.18
			c0.2,0.13,0.29,0.3,0.29,0.51C113.84,18.58,113.78,18.75,113.66,18.9z M111.65,27.49c-0.33-0.26-0.81-0.46-1.45-0.59l-1.95-0.39
			c-0.94,0.21-1.63,0.48-2.09,0.82c-0.38,0.27-0.57,0.59-0.57,0.96c0,0.46,0.3,0.82,0.9,1.09c0.61,0.29,1.46,0.43,2.54,0.43
			c0.83,0,1.56-0.14,2.17-0.43c0.61-0.27,0.92-0.61,0.92-1C112.12,28.04,111.96,27.74,111.65,27.49z M110.48,19.13
			c-0.42-0.56-0.97-0.84-1.66-0.84c-0.72,0-1.28,0.28-1.7,0.84c-0.38,0.51-0.57,1.13-0.57,1.86c0,0.72,0.19,1.33,0.57,1.84
			c0.42,0.56,0.98,0.84,1.7,0.84c0.69,0,1.24-0.28,1.66-0.84c0.38-0.51,0.57-1.12,0.57-1.84C111.04,20.26,110.85,19.64,110.48,19.13
			z"/>
		<path d="M36.51,39.39c-0.42,0.29-0.88,0.43-1.39,0.43c-0.61,0-1.09-0.18-1.45-0.55c-0.36-0.39-0.55-0.96-0.55-1.7v-6.95h-1.52
			v-0.41c0.7-0.08,1.24-0.38,1.62-0.92c0.4-0.57,0.63-1.42,0.68-2.54h0.41v3.3h2.7v0.57h-2.7v7.23c0,0.36,0.11,0.64,0.33,0.84
			c0.23,0.2,0.56,0.29,0.98,0.29c0.29,0,0.59-0.1,0.92-0.31c0.3-0.2,0.59-0.45,0.86-0.76l0.23,0.18
			C37.32,38.67,36.94,39.11,36.51,39.39z"/>
		<path d="M43.71,39.49v-0.51c0.49,0,0.84-0.08,1.04-0.25c0.2-0.14,0.29-0.4,0.29-0.76v-5.27c0-0.62-0.13-1.09-0.39-1.41
			c-0.27-0.34-0.68-0.51-1.23-0.51c-0.51,0-1.01,0.14-1.5,0.41c-0.4,0.23-0.83,0.58-1.27,1.04v5.74c0,0.36,0.1,0.62,0.31,0.78
			c0.21,0.16,0.56,0.23,1.05,0.23v0.51h-3.87v-0.51c0.47,0,0.8-0.08,1-0.23c0.21-0.16,0.31-0.42,0.31-0.78V27.3
			c0-0.42-0.1-0.7-0.29-0.84c-0.17-0.13-0.48-0.2-0.94-0.2l-0.08-0.31l2.5-1v6.58l0.02-0.04c0.61-0.53,1.1-0.91,1.46-1.13
			c0.64-0.38,1.24-0.57,1.82-0.57c0.68,0,1.22,0.2,1.62,0.59c0.44,0.44,0.66,1.1,0.66,1.97v5.61c0,0.35,0.11,0.61,0.33,0.76
			c0.21,0.17,0.54,0.25,1,0.25v0.51H43.71z"/>
		<path d="M55.21,39.14c-0.69,0.46-1.49,0.68-2.4,0.68c-1.24,0-2.26-0.46-3.07-1.39c-0.83-0.95-1.25-2.17-1.25-3.65
			c0-1.41,0.4-2.59,1.19-3.55c0.81-0.95,1.82-1.43,3.03-1.43c1.17,0,2.12,0.4,2.85,1.19c0.75,0.82,1.13,1.92,1.13,3.3h-6.91
			c0,1.68,0.35,2.94,1.05,3.77c0.59,0.69,1.34,1.04,2.27,1.04c0.62,0,1.22-0.16,1.8-0.49c0.57-0.31,1.11-0.78,1.62-1.41l0.29,0.25
			C56.33,38.19,55.8,38.75,55.21,39.14z M55.39,33.71l-0.21-0.55c-0.18-0.43-0.38-0.82-0.59-1.17c-0.27-0.49-0.55-0.88-0.84-1.17
			c-0.36-0.35-0.72-0.53-1.05-0.53c-0.7,0-1.35,0.33-1.93,1c-0.6,0.69-0.92,1.5-0.98,2.42H55.39z"/>
		<path d="M63.7,39.49v-0.51c0.48,0,0.83-0.1,1.04-0.29c0.2-0.18,0.29-0.48,0.29-0.9v-10.7c0-0.33-0.1-0.56-0.29-0.7
			c-0.2-0.16-0.54-0.23-1.04-0.23l-0.08-0.29l2.6-0.9v12.83c0,0.4,0.1,0.7,0.31,0.9c0.23,0.2,0.6,0.29,1.09,0.29v0.51H63.7z"/>
		<path d="M68.54,39.49v-0.51c0.48,0,0.81-0.06,1-0.18c0.22-0.14,0.33-0.4,0.33-0.78v-6.13c0-0.3-0.08-0.51-0.25-0.64
			c-0.21-0.17-0.57-0.25-1.09-0.23l-0.06-0.29l2.6-0.92v8.22c0,0.39,0.09,0.65,0.27,0.78c0.17,0.12,0.52,0.18,1.05,0.18v0.51H68.54z
			 M71.27,26.46c-0.21,0.21-0.48,0.31-0.8,0.31c-0.34,0-0.6-0.1-0.78-0.31c-0.17-0.18-0.25-0.41-0.25-0.68s0.08-0.5,0.25-0.68
			c0.18-0.21,0.44-0.31,0.78-0.31c0.33,0,0.59,0.1,0.8,0.31c0.18,0.18,0.27,0.41,0.27,0.68C71.55,26.04,71.46,26.27,71.27,26.46z"/>
		<path d="M80.04,39.16c-0.57,0.43-1.24,0.64-1.99,0.64c-0.22,0-0.45-0.03-0.68-0.08c-0.13-0.04-0.32-0.09-0.57-0.16
			c-0.27-0.09-0.47-0.14-0.59-0.16c-0.2-0.03-0.36-0.01-0.51,0.06l-0.82,0.31l-1.17-3.03l0.23-0.14c0.56,0.78,1.11,1.37,1.66,1.78
			c0.75,0.59,1.56,0.88,2.4,0.88c0.53,0,1-0.18,1.39-0.55c0.43-0.39,0.64-0.88,0.64-1.48c0-0.56-0.2-1-0.61-1.33
			c-0.36-0.29-1-0.54-1.89-0.76c-1.33-0.36-2.27-0.82-2.83-1.37c-0.46-0.46-0.68-1.02-0.68-1.7c0-0.66,0.26-1.21,0.78-1.64
			c0.53-0.43,1.2-0.64,2.01-0.64c0.22,0,0.46,0.03,0.7,0.08c0.14,0.03,0.33,0.08,0.57,0.16c0.2,0.07,0.33,0.1,0.41,0.12
			c0.13,0.03,0.24,0.03,0.33,0l0.76-0.37l1.13,2.89l-0.33,0.12c-0.31-0.55-0.77-1.06-1.37-1.54c-0.77-0.62-1.51-0.94-2.23-0.94
			c-0.48,0-0.89,0.14-1.23,0.41c-0.35,0.31-0.53,0.71-0.53,1.19c0,0.62,0.26,1.11,0.78,1.45c0.33,0.21,0.89,0.42,1.7,0.62
			c1.24,0.33,2.14,0.74,2.7,1.25c0.55,0.5,0.82,1.15,0.82,1.95C81.04,38.01,80.7,38.66,80.04,39.16z"/>
		<path d="M86.95,39.39c-0.42,0.29-0.88,0.43-1.39,0.43c-0.61,0-1.09-0.18-1.45-0.55c-0.36-0.39-0.55-0.96-0.55-1.7v-6.95h-1.52
			v-0.41c0.7-0.08,1.24-0.38,1.62-0.92c0.4-0.57,0.63-1.42,0.68-2.54h0.41v3.3h2.7v0.57h-2.7v7.23c0,0.36,0.11,0.64,0.33,0.84
			c0.23,0.2,0.56,0.29,0.98,0.29c0.29,0,0.59-0.1,0.92-0.31c0.3-0.2,0.59-0.45,0.86-0.76l0.23,0.18
			C87.76,38.67,87.38,39.11,86.95,39.39z"/>
	</g>
</g>
</svg>
